# This file uses centimeters as units for non-parametric coordinates.

v 3.423550 -0.221031 8.425641
v 8.098890 2.049261 8.425641
v 3.423550 4.344220 8.422209
v 3.423550 4.322815 3.092151
v 2.257464 3.500470 -5.346201
v 5.828691 2.049261 -8.468617
v 2.754798 0.598052 -5.346201
v 3.423550 0.018568 3.100928
v 8.098890 2.049261 -0.021489
v 1.009485 2.049261 -16.265778
v 3.423549 2.049261 8.425641
v 3.423550 4.642663 8.403176
v 3.423550 4.621131 3.064989
v 2.257464 3.794794 -5.415246
v 1.009485 2.341416 -16.356398
v 3.423550 4.346898 9.033329
v 3.423550 4.644311 9.002095
v -3.471715 -0.221031 8.425641
v -8.147056 2.049261 8.425641
v -3.471715 4.344220 8.422209
v -3.471715 4.322815 3.092151
v -2.305630 3.500470 -5.346201
v -5.876856 2.049261 -8.468617
v -2.802963 0.598052 -5.346201
v -3.471715 0.018568 3.100928
v -8.147056 2.049261 -0.021489
v -1.057650 2.049261 -16.265778
v -3.471714 2.049261 8.425641
v -3.471715 4.642663 8.403176
v -3.471715 4.621131 3.064989
v -2.305630 3.794794 -5.415246
v -1.057650 2.341416 -16.356398
v -3.471715 4.346898 9.033329
v -3.471715 4.644311 9.002095
vt 0.625000 0.000000
vt 0.625000 0.125000
vt 0.625000 0.250000
vt 0.625000 0.375000
vt 0.625000 0.500000
vt 0.625000 0.625000
vt 0.750000 0.375000
vt 0.625000 0.375000
vt 0.750000 0.000000
vt 0.875000 0.125000
vt 0.750000 0.125000
vt 0.875000 0.250000
vt 0.750000 0.250000
vt 0.509458 0.625000
vt 0.509458 0.125000
vt 0.625000 0.250000
vt 0.625000 0.375000
vt 0.625000 0.500000
vt 0.509458 0.625000
vt 0.625000 0.250000
vt 0.625000 0.250000
vt 0.509458 0.125000
vt 0.625000 0.000000
vt 0.625000 0.125000
vt 0.625000 0.250000
vt 0.625000 0.250000
vt 0.625000 0.375000
vt 0.625000 0.500000
vt 0.509458 0.625000
vt 0.509458 0.625000
vt 0.750000 0.375000
vt 0.750000 0.000000
vt 0.625000 0.250000
vt 0.875000 0.125000
vt 0.750000 0.125000
vt 0.875000 0.250000
vt 0.750000 0.250000
vt 0.625000 0.500000
vt 0.625000 0.625000
vt 0.625000 0.250000
vn 0.000000 0.000000 1.000000
vn 0.000000 0.000000 1.000000
vn 0.000000 0.000000 1.000000
vn 0.000000 0.001496 0.999999
vn 0.000000 0.001496 0.999999
vn 0.000000 0.001496 0.999999
vn 0.123304 -0.989308 -0.077882
vn 0.179036 -0.980436 -0.081800
vn 0.345397 -0.933925 -0.092120
vn 0.345397 -0.933925 -0.092120
vn 0.413457 -0.910386 -0.015839
vn 0.413457 -0.910386 -0.015839
vn 0.413457 -0.910386 -0.015839
vn 0.413457 -0.910386 -0.015839
vn 0.336116 0.934904 -0.113933
vn 0.336116 0.934904 -0.113933
vn 0.336116 0.934904 -0.113933
vn 0.336116 0.934904 -0.113933
vn 0.438607 0.898678 -0.001396
vn 0.438608 0.898678 -0.001396
vn 0.438608 0.898678 -0.001396
vn 0.438608 0.898678 -0.001396
vn 0.251965 0.955124 -0.155732
vn 0.251965 0.955124 -0.155732
vn 0.251965 0.955124 -0.155732
vn 0.067407 -0.987566 -0.142021
vn 0.029053 -0.990249 -0.136248
vn 0.274507 -0.946499 -0.169665
vn 1.000000 -0.000000 0.000000
vn 0.996577 -0.013247 -0.081606
vn 0.996297 -0.013776 -0.084865
vn 1.000000 -0.000000 0.000000
vn 0.992282 -0.026051 -0.121233
vn 0.992485 -0.026625 -0.119438
vn 0.993542 -0.029804 -0.109478
vn 0.993542 -0.029804 -0.109478
vn 1.000000 -0.000001 0.000000
vn 1.000000 -0.000001 0.000000
vn 0.000000 0.000000 1.000000
vn 0.000000 0.000000 1.000000
vn 0.000000 0.000000 1.000000
vn 0.000000 0.001496 0.999999
vn 0.000000 0.001496 0.999999
vn 0.000000 0.001496 0.999999
vn -0.123304 -0.989308 -0.077882
vn -0.345397 -0.933925 -0.092120
vn -0.345397 -0.933925 -0.092120
vn -0.179036 -0.980436 -0.081800
vn -0.413457 -0.910386 -0.015839
vn -0.413457 -0.910386 -0.015839
vn -0.413457 -0.910386 -0.015839
vn -0.413457 -0.910386 -0.015839
vn -0.336116 0.934904 -0.113933
vn -0.336116 0.934904 -0.113933
vn -0.336116 0.934904 -0.113933
vn -0.336116 0.934904 -0.113933
vn -0.438607 0.898678 -0.001396
vn -0.438608 0.898678 -0.001396
vn -0.438608 0.898678 -0.001396
vn -0.438608 0.898678 -0.001396
vn -0.251965 0.955124 -0.155732
vn -0.251965 0.955124 -0.155732
vn -0.251965 0.955124 -0.155732
vn -0.067407 -0.987566 -0.142021
vn -0.274506 -0.946499 -0.169665
vn -0.029053 -0.990249 -0.136248
vn -1.000000 -0.000001 0.000000
vn -1.000000 -0.000001 0.000000
vn -0.996297 -0.013777 -0.084865
vn -0.996577 -0.013248 -0.081606
vn -0.992485 -0.026625 -0.119438
vn -0.992282 -0.026051 -0.121233
vn -0.993542 -0.029804 -0.109478
vn -0.993542 -0.029804 -0.109478
vn -1.000000 -0.000001 0.000000
vn -1.000000 -0.000001 0.000000
vn 0.000000 0.991292 -0.131679
vn 0.000000 0.991292 -0.131679
vn 0.000000 0.991292 -0.131679
vn 0.000000 0.991292 -0.131679
vn 0.000000 0.995286 -0.096983
vn 0.000000 0.995286 -0.096983
vn 0.000000 0.995286 -0.096983
vn 0.000000 0.995286 -0.096983
vn 0.000000 0.999992 -0.004034
vn 0.000000 0.999992 -0.004034
vn 0.000000 0.999992 -0.004034
vn 0.000000 0.999992 -0.004034
vn 0.000000 0.999996 -0.002752
vn 0.000000 0.999996 -0.002752
vn 0.000000 0.999996 -0.002752
vn 0.000000 0.999996 -0.002752
vn 0.000000 0.104444 0.994531
vn 0.000000 0.104444 0.994531
vn 0.000000 0.104444 0.994531
vn 0.000000 0.104444 0.994531
vn 0.000000 -0.999990 0.004381
vn 0.000000 -0.999990 0.004381
vn 0.000000 -0.999990 0.004381
vn 0.000000 -0.999990 0.004381
vn 0.000000 -0.998989 -0.044952
vn 0.000000 -0.998989 -0.044952
vn 0.000000 -0.998989 -0.044952
vn 0.000000 -0.998989 -0.044952
vn 0.000000 -0.296254 -0.955109
vn 0.000000 -0.296254 -0.955109
vn 0.000000 -0.296254 -0.955109
vn 0.000000 -0.296254 -0.955109
f 11/15/1 1/1/2 2/2/3
f 3/3/4 11/15/5 2/2/6
f 8/9/7 7/7/8 6/10/9 9/11/10
f 1/1/11 8/9/12 9/11/13 2/2/14
f 9/11/15 6/10/16 5/12/17 4/13/18
f 2/2/19 9/11/20 4/13/21 3/3/22
f 10/14/23 5/5/24 6/6/25
f 7/7/26 10/14/27 6/6/28
f 3/3/29 4/4/30 13/17/31 12/16/32
f 4/4/30 5/5/33 14/18/34 13/17/31
f 5/5/33 10/14/35 15/19/36 14/18/34
f 3/3/29 12/16/32 17/21/37 16/20/38
f 28/22/39 19/24/40 18/23/41
f 20/25/42 19/24/43 28/22/44
f 25/32/45 26/35/46 23/34/47 24/31/48
f 18/23/49 19/24/50 26/35/51 25/32/52
f 26/35/53 21/37/54 22/36/55 23/34/56
f 19/24/57 20/25/58 21/37/59 26/35/60
f 27/30/61 23/39/62 22/38/63
f 24/31/64 23/39/65 27/30/66
f 20/25/67 29/26/68 30/27/69 21/8/70
f 21/8/70 30/27/69 31/28/71 22/38/72
f 22/38/72 31/28/71 32/29/73 27/30/74
f 20/25/67 33/40/75 34/33/76 29/26/68
f 14/18/77 15/19/78 32/29/79 31/28/80
f 13/17/81 14/18/82 31/28/83 30/27/84
f 12/16/85 13/17/86 30/27/87 29/26/88
f 17/21/89 12/16/90 29/26/91 34/33/92
f 16/20/93 17/21/94 34/33/95 33/40/96
f 3/3/97 16/20/98 33/40/99 20/25/100
f 11/15/5 3/3/4 20/25/42 28/22/44
f 1/1/2 11/15/1 28/22/39 18/23/41
f 8/9/101 1/1/102 18/23/103 25/32/104
f 7/7/8 8/9/7 25/32/45 24/31/48
f 10/14/27 7/7/26 24/31/64 27/30/66
f 32/29/105 15/19/106 10/14/107 27/30/108
